<svg width="77" height="79" viewBox="0 0 77 79" fill="none" xmlns="http://www.w3.org/2000/svg">
<rect width="77" height="79" rx="10" fill="#F5F5F5"/>
<path d="M40.75 30.5C42.5402 30.5 44.2571 31.2112 45.523 32.477C46.7888 33.7429 47.5 35.4598 47.5 37.25C47.5 37.8467 47.7371 38.419 48.159 38.841C48.581 39.2629 49.1533 39.5 49.75 39.5C50.3467 39.5 50.919 39.2629 51.341 38.841C51.7629 38.419 52 37.8467 52 37.25C52 34.2663 50.8147 31.4048 48.705 29.295C46.5952 27.1853 43.7337 26 40.75 26C40.1533 26 39.581 26.2371 39.159 26.659C38.7371 27.081 38.5 27.6533 38.5 28.25C38.5 28.8467 38.7371 29.419 39.159 29.841C39.581 30.2629 40.1533 30.5 40.75 30.5Z" fill="#7165E3"/>
<path d="M40.75 21.5C44.9272 21.5 48.9332 23.1594 51.8869 26.1131C54.8406 29.0668 56.5 33.0728 56.5 37.25C56.5 37.8467 56.7371 38.419 57.159 38.841C57.581 39.2629 58.1533 39.5 58.75 39.5C59.3467 39.5 59.919 39.2629 60.341 38.841C60.7629 38.419 61 37.8467 61 37.25C61 31.8794 58.8665 26.7287 55.0689 22.9311C51.2713 19.1335 46.1206 17 40.75 17C40.1533 17 39.581 17.2371 39.159 17.659C38.7371 18.081 38.5 18.6533 38.5 19.25C38.5 19.8467 38.7371 20.419 39.159 20.841C39.581 21.2629 40.1533 21.5 40.75 21.5ZM60.4375 48.2975C60.3137 47.9363 60.1001 47.6125 59.8167 47.3567C59.5333 47.1008 59.1894 46.9213 58.8175 46.835L45.3175 43.7525C44.9511 43.6694 44.5696 43.6794 44.2081 43.7816C43.8465 43.8838 43.5162 44.0749 43.2475 44.3375C42.9325 44.63 42.91 44.6525 41.4475 47.4425C36.5947 45.2064 32.7062 41.3019 30.49 36.44C33.3475 35 33.37 35 33.6625 34.6625C33.9251 34.3938 34.1162 34.0635 34.2184 33.7019C34.3206 33.3404 34.3306 32.9589 34.2475 32.5925L31.165 19.25C31.0787 18.8781 30.8992 18.5342 30.6433 18.2508C30.3875 17.9674 30.0637 17.7538 29.7025 17.63C29.1771 17.4423 28.6344 17.3067 28.0825 17.225C27.5138 17.0931 26.9335 17.0178 26.35 17C23.605 17 20.9724 18.0904 19.0314 20.0314C17.0904 21.9724 16 24.605 16 27.35C16.0119 36.5361 19.6663 45.3425 26.1619 51.8381C32.6575 58.3337 41.4639 61.9881 50.65 62C52.0092 62 53.3551 61.7323 54.6108 61.2122C55.8665 60.692 57.0075 59.9296 57.9686 58.9686C58.9296 58.0075 59.692 56.8665 60.2122 55.6108C60.7323 54.3551 61 53.0092 61 51.65C61.0007 51.0773 60.9556 50.5055 60.865 49.94C60.7704 49.3811 60.6274 48.8316 60.4375 48.2975ZM50.65 57.5C42.6556 57.494 34.9902 54.3156 29.3373 48.6627C23.6844 43.0098 20.506 35.3444 20.5 27.35C20.5059 25.8003 21.1242 24.3158 22.22 23.22C23.3158 22.1242 24.8003 21.5059 26.35 21.5H27.0925L29.5 31.94L28.285 32.57C26.35 33.5825 24.82 34.3925 25.63 36.1475C26.949 39.8816 29.0832 43.2749 31.8777 46.081C34.6721 48.8871 38.0565 51.0354 41.785 52.37C43.675 53.135 44.4175 51.7175 45.43 49.76L46.0825 48.5225L56.5 50.9075V51.65C56.4941 53.1997 55.8758 54.6842 54.78 55.78C53.6842 56.8758 52.1997 57.4941 50.65 57.5Z" fill="#7165E3"/>
</svg>
