<svg width="77" height="79" viewBox="0 0 77 79" fill="none" xmlns="http://www.w3.org/2000/svg">
<rect width="77" height="79" rx="10" fill="#F5F5F5"/>
<path d="M37.125 32.5H40.875V66.25H37.125V32.5Z" fill="#7165E3"/>
<path d="M30.2435 44.1624C28.8656 42.9312 27.7631 41.423 27.0083 39.7364C26.2535 38.0497 25.8633 36.2227 25.8633 34.3749C25.8633 32.5271 26.2535 30.7001 27.0083 29.0134C27.7631 27.3268 28.8656 25.8186 30.2435 24.5874L32.756 27.3812C31.7709 28.2606 30.9827 29.3382 30.443 30.5434C29.9033 31.7487 29.6243 33.0543 29.6243 34.3749C29.6243 35.6955 29.9033 37.0011 30.443 38.2064C30.9827 39.4116 31.7709 40.4892 32.756 41.3686L30.2435 44.1624Z" fill="#7165E3"/>
<path d="M47.7562 44.1624L45.2437 41.3686C46.2288 40.4892 47.017 39.4116 47.5567 38.2064C48.0964 37.0011 48.3754 35.6955 48.3754 34.3749C48.3754 33.0543 48.0964 31.7487 47.5567 30.5434C47.017 29.3382 46.2288 28.2606 45.2437 27.3812L47.7562 24.5874C49.1341 25.8186 50.2366 27.3268 50.9914 29.0134C51.7462 30.7001 52.1364 32.5271 52.1364 34.3749C52.1364 36.2227 51.7462 38.0497 50.9914 39.7364C50.2366 41.423 49.1341 42.9312 47.7562 44.1624Z" fill="#7165E3"/>
<path d="M24.75 50.875C22.1885 48.9538 20.1094 46.4627 18.6774 43.5988C17.2455 40.7349 16.5 37.5769 16.5 34.375C16.5 31.1731 17.2455 28.0151 18.6774 25.1512C20.1094 22.2873 22.1885 19.7962 24.75 17.875L27 20.875C24.9042 22.4469 23.2031 24.4851 22.0315 26.8283C20.8599 29.1715 20.25 31.7552 20.25 34.375C20.25 36.9948 20.8599 39.5785 22.0315 41.9217C23.2031 44.2649 24.9042 46.3031 27 47.875L24.75 50.875Z" fill="#7165E3"/>
<path d="M53.25 50.875L51 47.875C53.0958 46.3031 54.7969 44.2649 55.9685 41.9217C57.1401 39.5785 57.75 36.9948 57.75 34.375C57.75 31.7552 57.1401 29.1715 55.9685 26.8283C54.7969 24.4851 53.0958 22.4469 51 20.875L53.25 17.875C55.8115 19.7962 57.8906 22.2873 59.3226 25.1512C60.7545 28.0151 61.5 31.1731 61.5 34.375C61.5 37.5769 60.7545 40.7349 59.3226 43.5988C57.8906 46.4627 55.8115 48.9538 53.25 50.875Z" fill="#7165E3"/>
</svg>
