<svg width="77" height="79" viewBox="0 0 77 79" fill="none" xmlns="http://www.w3.org/2000/svg">
<rect width="77" height="79" rx="10" fill="#F5F5F5"/>
<path d="M39.9995 23.6667L31.9995 35.6667H37.3328V43.6667L45.3328 31.6667H39.9995V23.6667Z" fill="#7165E3"/>
<path fill-rule="evenodd" clip-rule="evenodd" d="M57.2129 33.364C56.8129 36.7867 55.4342 40.0293 53.2355 42.7173C51.9529 44.284 48.6929 48.76 47.9996 51.6667H29.3329C28.6396 48.7573 25.3756 44.2813 24.0929 42.7133C21.9015 40.0385 20.5226 36.7916 20.1196 33.3573C19.7222 29.9303 20.3202 26.4614 21.8422 23.3653C23.3785 20.2456 25.7666 17.6246 28.7302 15.8053C31.7196 13.9683 35.1602 12.9972 38.6689 13C42.1862 13 45.6316 13.9733 48.6076 15.8093C51.5704 17.6293 53.9576 20.2508 55.4929 23.3707C57.0142 26.4674 57.6114 29.9368 57.2129 33.364ZM46.1102 49H31.2209C30.6529 47.6893 29.8942 46.376 29.1876 45.26C28.2577 43.7934 27.2463 42.3801 26.1582 41.0267C24.2892 38.7462 23.1129 35.9778 22.7689 33.0493C22.4302 30.1309 22.9394 27.1767 24.2356 24.54C25.5503 21.8722 27.5936 19.6311 30.1289 18.076C32.6977 16.498 35.6541 15.6639 38.6689 15.6667C41.6956 15.6667 44.6556 16.5053 47.2089 18.08C49.7432 19.6354 51.7855 21.8765 53.0996 24.544C54.3951 27.1813 54.9033 30.136 54.5636 33.0547C54.2182 35.9824 53.0411 38.7499 51.1716 41.0293C50.4649 41.8907 49.2662 43.488 48.1436 45.2627C47.4369 46.3787 46.6796 47.6893 46.1116 49H46.1102Z" fill="#7165E3"/>
<path d="M29.333 55.6666C29.333 55.313 29.4735 54.9738 29.7235 54.7238C29.9736 54.4737 30.3127 54.3333 30.6663 54.3333H46.6663C47.02 54.3333 47.3591 54.4737 47.6091 54.7238C47.8592 54.9738 47.9997 55.313 47.9997 55.6666C47.9997 56.0202 47.8592 56.3593 47.6091 56.6094C47.3591 56.8594 47.02 56.9999 46.6663 56.9999H30.6663C30.3127 56.9999 29.9736 56.8594 29.7235 56.6094C29.4735 56.3593 29.333 56.0202 29.333 55.6666Z" fill="#7165E3"/>
<path fill-rule="evenodd" clip-rule="evenodd" d="M29.333 59.6667H47.9997V63.6667C47.9997 64.374 47.7187 65.0523 47.2186 65.5524C46.7185 66.0525 46.0403 66.3334 45.333 66.3334H31.9997C31.2924 66.3334 30.6142 66.0525 30.1141 65.5524C29.614 65.0523 29.333 64.374 29.333 63.6667V59.6667ZM31.9997 62.3334H45.333V63.6667H31.9997V62.3334Z" fill="#7165E3"/>
</svg>
