<svg width="77" height="79" viewBox="0 0 77 79" fill="none" xmlns="http://www.w3.org/2000/svg">
<rect width="77" height="79" rx="10" fill="#F5F5F5"/>
<path d="M19 30C19 28.6739 19.5268 27.4021 20.4645 26.4645C21.4021 25.5268 22.6739 25 24 25H54C55.3261 25 56.5979 25.5268 57.5355 26.4645C58.4732 27.4021 59 28.6739 59 30V33.17C58.2404 32.73 57.3778 32.4989 56.5 32.5V30C56.5 29.337 56.2366 28.7011 55.7678 28.2322C55.2989 27.7634 54.663 27.5 54 27.5H24C23.337 27.5 22.7011 27.7634 22.2322 28.2322C21.7634 28.7011 21.5 29.337 21.5 30V47.5C21.5 48.163 21.7634 48.7989 22.2322 49.2678C22.7011 49.7366 23.337 50 24 50H44V50.4475C43.9998 51.1551 44.1498 51.8547 44.44 52.5H24C22.6739 52.5 21.4021 51.9732 20.4645 51.0355C19.5268 50.0979 19 48.8261 19 47.5V30ZM47.75 57.2875L46.1125 55H27.75C27.4185 55 27.1005 55.1317 26.8661 55.3661C26.6317 55.6005 26.5 55.9185 26.5 56.25C26.5 56.5815 26.6317 56.8995 26.8661 57.1339C27.1005 57.3683 27.4185 57.5 27.75 57.5H47.75V57.2875ZM49 37.5V42.5C48.337 42.5 47.7011 42.7634 47.2322 43.2322C46.7634 43.7011 46.5 44.337 46.5 45V50.4475C46.5001 50.9694 46.6636 51.4782 46.9675 51.9025L50.25 56.485V60C50.25 60.663 50.5134 61.2989 50.9822 61.7678C51.4511 62.2366 52.087 62.5 52.75 62.5H55.25C55.913 62.5 56.5489 62.2366 57.0178 61.7678C57.4866 61.2989 57.75 60.663 57.75 60V56.485L61.0225 51.985C61.3329 51.5577 61.5001 51.0431 61.5 50.515V45C61.5 44.337 61.2366 43.7011 60.7678 43.2322C60.2989 42.7634 59.663 42.5 59 42.5V37.5C59 36.837 58.7366 36.2011 58.2678 35.7322C57.7989 35.2634 57.163 35 56.5 35H51.5C50.837 35 50.2011 35.2634 49.7322 35.7322C49.2634 36.2011 49 36.837 49 37.5ZM56.5 42.5H51.5V37.5H56.5V42.5Z" fill="#7165E3"/>
</svg>
