<svg width="50" height="50" viewBox="0 0 50 50" fill="none" xmlns="http://www.w3.org/2000/svg">
<rect width="50" height="50" rx="5" fill="#7165E3"/>
<path d="M37.6748 19.765C37.6605 18.692 37.4596 17.6298 37.0812 16.6257C36.753 15.7787 36.2518 15.0095 35.6095 14.3672C34.9672 13.725 34.1981 13.2237 33.3511 12.8956C32.3599 12.5235 31.3128 12.3223 30.2543 12.3006C28.8914 12.2397 28.4594 12.2227 24.9999 12.2227C21.5404 12.2227 21.0969 12.2227 19.744 12.3006C18.686 12.3225 17.6393 12.5237 16.6486 12.8956C15.8015 13.2235 15.0322 13.7247 14.3899 14.367C13.7476 15.0093 13.2465 15.7786 12.9185 16.6257C12.5457 17.6161 12.3449 18.663 12.3249 19.7211C12.264 21.0853 12.2456 21.5174 12.2456 24.9769C12.2456 28.4364 12.2456 28.8784 12.3249 30.2327C12.3462 31.2924 12.5459 32.3379 12.9185 33.331C13.247 34.1778 13.7485 34.9468 14.3911 35.5888C15.0336 36.2309 15.8029 36.7318 16.65 37.0597C17.6381 37.4467 18.6849 37.6623 19.7454 37.6972C21.1097 37.7581 21.5418 37.7765 25.0013 37.7765C28.4608 37.7765 28.9042 37.7765 30.2571 37.6972C31.3156 37.6763 32.3628 37.4756 33.3539 37.1036C34.2007 36.775 34.9697 36.2737 35.6119 35.6314C36.2541 34.9892 36.7555 34.2202 37.084 33.3735C37.4566 32.3818 37.6564 31.3363 37.6776 30.2752C37.7385 28.9124 37.7569 28.4803 37.7569 25.0194C37.7541 21.5599 37.7541 21.1207 37.6748 19.765ZM24.9914 31.5191C21.3732 31.5191 18.4421 28.588 18.4421 24.9698C18.4421 21.3517 21.3732 18.4206 24.9914 18.4206C26.7283 18.4206 28.3942 19.1106 29.6224 20.3388C30.8506 21.567 31.5406 23.2329 31.5406 24.9698C31.5406 26.7068 30.8506 28.3726 29.6224 29.6008C28.3942 30.8291 26.7283 31.5191 24.9914 31.5191ZM31.8013 19.7055C31.6007 19.7057 31.402 19.6663 31.2166 19.5896C31.0313 19.5129 30.8628 19.4005 30.721 19.2586C30.5791 19.1168 30.4667 18.9483 30.39 18.763C30.3133 18.5776 30.2739 18.3789 30.2741 18.1783C30.2741 17.9779 30.3136 17.7794 30.3903 17.5942C30.467 17.409 30.5795 17.2407 30.7212 17.099C30.8629 16.9572 31.0312 16.8448 31.2164 16.7681C31.4016 16.6913 31.6001 16.6519 31.8006 16.6519C32.001 16.6519 32.1995 16.6913 32.3847 16.7681C32.5699 16.8448 32.7382 16.9572 32.8799 17.099C33.0217 17.2407 33.1341 17.409 33.2108 17.5942C33.2875 17.7794 33.327 17.9779 33.327 18.1783C33.327 19.0227 32.6442 19.7055 31.8013 19.7055Z" fill="white"/>
<path d="M24.9916 29.2243C27.3411 29.2243 29.2458 27.3196 29.2458 24.9701C29.2458 22.6205 27.3411 20.7158 24.9916 20.7158C22.642 20.7158 20.7373 22.6205 20.7373 24.9701C20.7373 27.3196 22.642 29.2243 24.9916 29.2243Z" fill="white"/>
</svg>
