<svg width="50" height="50" viewBox="0 0 50 50" fill="none" xmlns="http://www.w3.org/2000/svg">
<rect width="50" height="50" rx="5" fill="#7165E3"/>
<path d="M36.8151 18.4796C36.8356 18.7647 36.8356 19.0481 36.8356 19.3315C36.8356 28.0053 30.4422 38 18.7581 38C15.1584 38 11.8142 36.9233 9 35.0534C9.51109 35.1136 10.0033 35.1348 10.5349 35.1348C13.3948 35.142 16.1737 34.1545 18.4237 32.3315C17.0977 32.3068 15.8123 31.855 14.747 31.0394C13.6817 30.2238 12.8896 29.085 12.4814 27.7821C12.8742 27.8424 13.2686 27.8831 13.6819 27.8831C14.2513 27.8831 14.8239 27.8017 15.3555 27.6599C13.9165 27.3599 12.6226 26.5545 11.6937 25.3806C10.7648 24.2068 10.2583 22.7369 10.2604 21.221V21.1396C11.1075 21.6266 12.0902 21.9312 13.1313 21.9719C12.2591 21.3735 11.544 20.5614 11.0496 19.6081C10.5553 18.6548 10.2972 17.59 10.2982 16.5087C10.2982 15.2903 10.6122 14.1729 11.1627 13.1988C12.7593 15.2268 14.7506 16.8859 17.0077 18.0686C19.2647 19.2513 21.7372 19.9313 24.265 20.0645C24.1672 19.5759 24.1072 19.0693 24.1072 18.5611C24.1068 17.6993 24.2709 16.846 24.59 16.0498C24.9092 15.2535 25.3772 14.5301 25.9673 13.9207C26.5574 13.3114 27.258 12.8281 28.0291 12.4986C28.8002 12.169 29.6266 11.9996 30.4612 12C32.291 12 33.9426 12.7916 35.1036 14.0719C36.5261 13.7879 37.8902 13.2517 39.1356 12.487C38.6614 14.0032 37.6682 15.2889 36.3419 16.1031C37.6035 15.9545 38.8365 15.6119 40 15.0867C39.131 16.3948 38.0543 17.542 36.8151 18.4796Z" fill="white"/>
</svg>
